<?xml version="1.0" encoding="utf-8"?>
<!-- Generator: Adobe Illustrator 23.0.1, SVG Export Plug-In . SVG Version: 6.00 Build 0)  -->
<svg version="1.1" id="Layer_1" xmlns="http://www.w3.org/2000/svg" xmlns:xlink="http://www.w3.org/1999/xlink" x="0px" y="0px"
	 viewBox="0 0 1889.7 364.5" style="enable-background:new 0 0 1889.7 364.5;" xml:space="preserve">
<style type="text/css">
	.st0{fill:#FFFFFF;}
	.st1{fill:#1DDB1D;}
</style>
<path class="st0" d="M0,359V141h41v26c0,0,23.3-32.5,75.3-32.5s72.1,38,72.1,38s17.6-38,78.1-38s77.6,49.5,77.6,60s0,164.5,0,164.5
	h-40c0,0-0.5-140.3-0.5-152.3s-16.8-34.6-46.8-34.6S193,192,193,212.5s0,146.5,0,146.5h-42c0,0,0-132.5,0-146s-9-41-45.5-41
	S42,193.5,42,219s0,140,0,140H0z"/>
<path class="st0" d="M467,364.5c51,0,83-32.5,83-32.5v27h41V141h-42c0,0,0,113.5,0,139s-35,47-71.5,47S429,299.5,429,286
	s0-145,0-145h-42c0,0,0,140.5,0,156C387,332,416,364.5,467,364.5z"/>
<rect x="631" y="51" class="st0" width="43" height="308"/>
<path class="st0" d="M794,325c11.5,0,38,0,38,0v34c0,0-27,0-51.1,0c-24.1,0-45.9-23-45.9-46s0-134,0-134h-41v-37h40V76h43v66h54v37
	h-54c0,0,0,125.5,0,132S782.5,325,794,325z"/>
<rect x="855" y="141" class="st0" width="43" height="218"/>
<path class="st0" d="M941,359V141h41v26c0,0,23.3-32.5,75.3-32.5s72.1,38,72.1,38s17.6-38,78.1-38s77.6,49.5,77.6,60
	s0,164.5,0,164.5h-40c0,0-0.5-140.3-0.5-152.3s-16.8-34.6-46.8-34.6S1134,192,1134,212.5s0,146.5,0,146.5h-42c0,0,0-132.5,0-146
	s-9-41-45.5-41S983,193.5,983,219s0,140,0,140H941z"/>
<rect x="1841" y="141" class="st0" width="43" height="218"/>
<path class="st0" d="M1755,51v122c-28-28.3-49.9-32.5-75.9-32.5s-101.9,7.2-101.9,104.5S1639,361.9,1692,361.9s106-32.6,106-92.9V51
	H1755z M1691.7,324.3c-48.7,0-72-32.3-72-72.3s21.8-72.3,68.3-72.3c44.4,0,69.4,26.7,69.4,71.3S1740.3,324.3,1691.7,324.3z"/>
<path class="st0" d="M1369.7,228.8c6.3-30.4,27.9-52.5,66.3-52.5c37.5,0,61.2,19,67.6,51.8L1369.7,228.8z M1501,281.8
	c-7.9,24.4-26.5,39-61.1,39c-41.8,0-65-22.9-70.7-55.9H1547l-0.3-36.8c0-43-54.3-91-107.3-91c-54.4,0-114,26.2-114,104.4
	c0,97.3,62,116.9,115,116.9c48,0,96.1-26.7,104.7-76.6L1501,281.8z"/>
<circle class="st1" cx="110.7" cy="220" r="27"/>
<circle class="st1" cx="876.7" cy="27" r="27"/>
<circle class="st1" cx="1862.7" cy="27" r="27"/>
</svg>
