<?xml version="1.0" encoding="utf-8"?>
<!-- Generator: Adobe Illustrator 23.0.1, SVG Export Plug-In . SVG Version: 6.00 Build 0)  -->
<svg version="1.1" id="Layer_2" xmlns="http://www.w3.org/2000/svg" xmlns:xlink="http://www.w3.org/1999/xlink" x="0px" y="0px"
	 viewBox="0 0 1412.4 364.5" style="enable-background:new 0 0 1412.4 364.5;" xml:space="preserve">
<style type="text/css">
	.st0{fill:#FFFFFF;}
	.st1{fill:#00D7E6;}
</style>
<rect x="870" y="143" class="st0" width="43" height="218"/>
<path class="st0" d="M565.1,235.8c6.3-30.4,27.9-52.5,66.3-52.5c37.5,0,61.2,19,67.6,51.8L565.1,235.8z M696.3,288.8
	c-7.9,24.4-26.5,39-61.1,39c-41.8,0-65-22.9-70.7-55.9h177.8l-0.3-36.8c0-43-54.3-91-107.3-91c-54.4,0-114,26.2-114,104.4
	c0,97.3,62,116.9,115,116.9c48,0,96.1-26.7,104.7-76.6L696.3,288.8z"/>
<circle class="st1" cx="891.7" cy="27" r="27"/>
<rect x="776" y="53" class="st0" width="43" height="308"/>
<path class="st0" d="M310,53v121.4c28-28.5,50-32.7,76.1-32.7c26.2,0,102.4,7.2,102.4,105.2c0,98-61.9,117.7-115.2,117.7
	C320,364.5,267,331.7,267,271V53H310z M373.2,326.7c49,0,72.5-32.5,72.5-72.8s-22-72.8-68.7-72.8c-44.7,0-69.9,26.8-69.9,71.8
	C307.1,297.8,324.2,326.7,373.2,326.7z"/>
<path class="st0" d="M116,364.5c55,0,116.5-26.5,116.5-105.8c0-98.7-62.7-118.5-116.5-118.5c-77.1,0-116,52.7-116,122.7
	c9,0,34,0.1,44.7,0.1c0-34.1,8.3-84.7,71.9-84.7c42.4,0,70.3,26.4,70.3,74C186.8,300,154,328,116,328V364.5z"/>
<polygon class="st0" points="1292,249.8 1246,292 1246,362 1203,362 1203,54 1246,54 1246,243 1350,150 1399,150 1321.8,222.4 
	1408,362 1361,362 "/>
<path class="st0" d="M1113,209c7,0,31,0,41,0c0-33-19-65.8-97-65.8s-97,31.9-97,63.9c0,42,22,51.9,97,62.9c52.1,7.6,65,21,65,34
	s-11,26.5-58,26.5s-66-5.5-66-31.5c-8,0-31,0-38,0c0,40,13,66.8,104,66.8s96.4-35.4,98-65.6c0-59-60-58.1-101-66.1s-60-12-60-27
	s6-27.5,54-27.5S1113,194,1113,209z"/>
<circle class="st1" cx="142.7" cy="229" r="27"/>
</svg>
