<?xml version="1.0" encoding="utf-8"?>
<!-- Generator: Adobe Illustrator 23.0.1, SVG Export Plug-In . SVG Version: 6.00 Build 0)  -->
<svg version="1.1" id="Layer_1" xmlns="http://www.w3.org/2000/svg" xmlns:xlink="http://www.w3.org/1999/xlink" x="0px" y="0px"
	 viewBox="0 0 741.8 364.5" style="enable-background:new 0 0 741.8 364.5;" xml:space="preserve">
<style type="text/css">
	.st0{fill:#FFFFFF;}
</style>
<rect x="205" class="st0" width="365" height="32"/>
<rect x="205" y="333" class="st0" width="365" height="32"/>
<path class="st0" d="M288,77c-63.8,0-135,0-135,0l-49.5,143.3L53,77H0l73,212h60l66-200v200c0,0,56.2,0,89,0
	c66.2,0,101-52.8,101-106S351.8,77,288,77z M249,240c0-25.3,0-103.7,0-117c90.7,0,90.5,41.7,90.5,58.5
	C339.5,204.7,340.1,240,249,240z"/>
<path class="st0" d="M710.2,175.5c0,0,22.5-10.1,22.5-39.7S713.5,77,663,77c-20.3,0-79,0-79,0v189L519,77h-72l-73,212h53l13-37h84
	l14,37c0,0,110.5,0,125,0c45.3,0,78.8-19.4,78.8-62.8S710.2,175.5,710.2,175.5z M458,203l25-73.5l25,73.5H458z M635,112
	c30,0,47.8,1.8,47.8,23S665,158,635,158C635,147.2,635,123,635,112z M635,251c0-12.2,0-39.7,0-51c44,0,58.7,6.3,58.7,25.5
	S682,251,635,251z"/>
</svg>
