<?xml version="1.0" encoding="utf-8"?>
<!-- Generator: Adobe Illustrator 23.0.1, SVG Export Plug-In . SVG Version: 6.00 Build 0)  -->
<svg version="1.1" id="Layer_1" xmlns="http://www.w3.org/2000/svg" xmlns:xlink="http://www.w3.org/1999/xlink" x="0px" y="0px"
	 viewBox="0 0 783.5 364.5" style="enable-background:new 0 0 783.5 364.5;" xml:space="preserve">
<style type="text/css">
	.st0{fill:#FFFFFF;}
</style>
<path class="st0" d="M489.1,48.8L395.3,1l-93.6,48.3l0.2,108.2l93.8,59.9l93.5-60.3L489.1,48.8z M394.7,19.7l72,36.7l-20.4,10.6
	l-50.5-25.8l-50.4,26l-22.6-10.5L394.7,19.7z M386,189.7l-66-44.1V74.9l25,13.6v45.2l41,30.6V189.7z M388,163v-52.7l-41.8-23.4
	l-0.7-17.3l51,28.3l49.4-28.4l-0.3,17.4l-42,24.1l0.3,52.1H388z M472,145.7l-66,44.1v-25.5l40-30.6V88.4l26-15.1V145.7z"/>
<g>
	<path class="st0" d="M29.5,364.5H19.3c-1.2,0-2-0.6-2.3-1.9L0,280.9c-0.3-1.2,0.3-1.9,1.7-1.9h7.2c1.3,0,2,0.6,2.1,1.9l13.4,73.2
		h0.8l17.9-73.3c0.3-1.2,1-1.7,2.1-1.7h8c1.1,0,1.9,0.6,2.1,1.7l18.2,73.3h0.8l13.3-73.1c0.3-1.3,1-2,2.3-2h7.2c1.4,0,2,0.7,1.7,2
		l-17.1,81.6c-0.3,1.2-1,1.9-2.1,1.9H69.4c-1.2,0-2-0.6-2.3-1.9l-17.4-71.3h-0.5l-17.5,71.3C31.4,363.9,30.7,364.5,29.5,364.5z"/>
	<path class="st0" d="M156.4,364.5h-41.7c-1.2,0-1.9-0.6-1.9-1.9v-81.7c0-1.2,0.6-1.9,1.9-1.9h41.7c1.2,0,1.9,0.6,1.9,1.9v4.8
		c0,1.2-0.6,1.9-1.9,1.9h-32.5c-0.9,0-1.3,0.4-1.3,1.2v26.8c0,0.8,0.4,1.2,1.3,1.2h28.4c1.2,0,1.9,0.6,1.9,1.9v4.8
		c0,1.2-0.6,1.9-1.9,1.9h-28.4c-0.9,0-1.3,0.4-1.3,1.2v28.3c0,0.8,0.4,1.2,1.3,1.2h32.5c1.2,0,1.9,0.6,1.9,1.9v4.8
		C158.2,363.9,157.6,364.5,156.4,364.5z"/>
	<path class="st0" d="M176.6,362.6v-81.7c0-1.2,0.6-1.9,1.9-1.9h31.2c6.1,0,10.9,1.7,14.3,5.1c3.5,3.4,5.2,8.2,5.2,14.3v7.3
		c0,7.9-3.7,13-11.2,15.3c3.4,0.3,6.2,1.8,8.6,4.5c2.4,2.7,3.6,6.3,3.6,10.7v8.9c0,6.1-1.8,10.9-5.2,14.3c-3.5,3.4-8.3,5.1-14.4,5.1
		h-32.2C177.2,364.5,176.6,363.9,176.6,362.6z M187.6,316.9h20.5c7.8,0,11.7-3.8,11.7-11.3v-7c0-7.5-3.8-11.3-11.3-11.3h-20.9
		c-0.9,0-1.3,0.4-1.3,1.3v27.1C186.3,316.5,186.7,316.9,187.6,316.9z M187.6,356.3h21.8c7.6,0,11.4-3.8,11.4-11.3v-8.6
		c0-7.5-4.1-11.3-12.2-11.3h-21c-0.9,0-1.3,0.4-1.3,1.2v28.7C186.3,355.8,186.7,356.3,187.6,356.3z"/>
	<path class="st0" d="M283.8,364.5h-15.9c-6.1,0-10.9-1.7-14.4-5.2c-3.5-3.5-5.2-8.3-5.2-14.5v-46.1c0-6.2,1.7-11,5.2-14.5
		c3.5-3.5,8.3-5.2,14.4-5.2h15.9c6.1,0,10.9,1.7,14.4,5.2c3.5,3.5,5.2,8.3,5.2,14.5v6.5c0,1.2-0.6,1.9-1.9,1.9h-6
		c-1.2,0-1.9-0.6-1.9-1.9v-6.1c0-7.7-3.7-11.6-11.2-11.6h-13.7c-7.4,0-11,3.9-11,11.6v45.3c0,7.7,3.7,11.6,11,11.6h13.7
		c7.4,0,11.2-3.9,11.2-11.6v-6.1c0-1.2,0.6-1.9,1.9-1.9h6c1.2,0,1.9,0.6,1.9,1.9v6.5c0,6.2-1.8,11-5.2,14.5
		C294.7,362.8,289.9,364.5,283.8,364.5z"/>
	<path class="st0" d="M329.2,364.5h-6c-1.2,0-1.9-0.6-1.9-1.9v-81.7c0-1.2,0.6-1.9,1.9-1.9h30.6c6.1,0,10.9,1.8,14.5,5.2
		c3.5,3.5,5.3,8.3,5.3,14.4v12.1c0,5-1.2,9.1-3.6,12.3c-2.4,3.2-5.7,5.4-10,6.4v0.5l15.4,32.3c0.8,1.4,0.4,2.1-1.3,2.1h-6
		c-1.5,0-2.6-0.6-3.3-1.9L350,330.5h-17.5c-0.9,0-1.3,0.4-1.3,1.2v31C331.1,363.9,330.5,364.5,329.2,364.5z M332.4,322.4h20.1
		c7.6,0,11.4-3.8,11.4-11.4v-11.8c0-7.7-3.8-11.6-11.4-11.6h-20.1c-0.9,0-1.3,0.4-1.3,1.2v32.4C331.1,322,331.5,322.4,332.4,322.4z"
		/>
	<path class="st0" d="M436.3,364.5h-41.7c-1.2,0-1.9-0.6-1.9-1.9v-81.7c0-1.2,0.6-1.9,1.9-1.9h41.7c1.2,0,1.9,0.6,1.9,1.9v4.8
		c0,1.2-0.6,1.9-1.9,1.9h-32.5c-0.9,0-1.3,0.4-1.3,1.2v26.8c0,0.8,0.4,1.2,1.3,1.2h28.4c1.2,0,1.9,0.6,1.9,1.9v4.8
		c0,1.2-0.6,1.9-1.9,1.9h-28.4c-0.9,0-1.3,0.4-1.3,1.2v28.3c0,0.8,0.4,1.2,1.3,1.2h32.5c1.2,0,1.9,0.6,1.9,1.9v4.8
		C438.2,363.9,437.5,364.5,436.3,364.5z"/>
	<path class="st0" d="M457.6,364.5h-6.6c-1.2,0-1.6-0.6-1.2-1.9l24.8-81.7c0.4-1.2,1.2-1.9,2.5-1.9h9.6c1.3,0,2.2,0.6,2.5,1.9
		l24.8,81.7c0.4,1.2,0,1.9-1.2,1.9h-6.8c-1,0-1.6-0.6-1.9-1.9l-6.2-19.4h-32.2l-6.2,19.4C459.2,363.9,458.5,364.5,457.6,364.5z
		 M481.6,289l-13.7,46h27.9l-13.7-46H481.6z"/>
	<path class="st0" d="M549.1,364.5h-6c-1.2,0-1.9-0.6-1.9-1.9v-73.9c0-0.8-0.4-1.2-1.3-1.2h-18.1c-1.3,0-2-0.6-2-1.9v-4.8
		c0-1.2,0.7-1.9,2-1.9h48.5c1.3,0,2,0.6,2,1.9v4.8c0,1.2-0.7,1.9-2,1.9h-18.1c-0.9,0-1.3,0.4-1.3,1.2v73.9
		C551,363.9,550.3,364.5,549.1,364.5z"/>
	<path class="st0" d="M619.1,364.5h-15.8c-6.1,0-10.9-1.7-14.4-5.2c-3.5-3.5-5.2-8.3-5.2-14.5v-46.1c0-6.2,1.7-11,5.2-14.5
		c3.5-3.5,8.3-5.2,14.4-5.2h15.8c6.1,0,10.9,1.8,14.4,5.2c3.5,3.5,5.2,8.3,5.2,14.4v46.1c0,6.1-1.7,10.9-5.2,14.4
		C630,362.8,625.2,364.5,619.1,364.5z M604.4,356h13.6c7.4,0,11.2-3.9,11.2-11.6v-45.3c0-7.7-3.7-11.6-11.2-11.6h-13.6
		c-7.4,0-11,3.9-11,11.6v45.3C593.3,352.1,597,356,604.4,356z"/>
	<path class="st0" d="M666.3,364.5h-6c-1.2,0-1.9-0.6-1.9-1.9v-81.7c0-1.2,0.6-1.9,1.9-1.9h30.6c6.1,0,10.9,1.8,14.5,5.2
		c3.5,3.5,5.3,8.3,5.3,14.4v12.1c0,5-1.2,9.1-3.6,12.3c-2.4,3.2-5.7,5.4-10,6.4v0.5l15.4,32.3c0.8,1.4,0.4,2.1-1.3,2.1h-6
		c-1.5,0-2.6-0.6-3.3-1.9L687,330.5h-17.5c-0.9,0-1.3,0.4-1.3,1.2v31C668.1,363.9,667.5,364.5,666.3,364.5z M669.5,322.4h20.1
		c7.6,0,11.4-3.8,11.4-11.4v-11.8c0-7.7-3.8-11.6-11.4-11.6h-20.1c-0.9,0-1.3,0.4-1.3,1.2v32.4C668.1,322,668.6,322.4,669.5,322.4z"
		/>
	<path class="st0" d="M728.8,344.8v-4.3c0-1.2,0.6-1.9,1.9-1.9h6c1.2,0,1.9,0.6,1.9,1.9v3.5c0,8,3.9,12,11.8,12h11.7
		c7.9,0,11.8-4.1,11.8-12.2v-4.5c0-6.4-5.3-10.5-15.8-12.5c-4.4-0.8-8.9-1.7-13.3-2.8c-4.4-1.1-8.2-3.1-11.3-6.2
		c-3.1-3.1-4.7-7.2-4.7-12.6v-6.5c0-6.1,1.7-10.9,5.2-14.4c3.5-3.5,8.3-5.2,14.4-5.2h14.8c6,0,10.8,1.8,14.3,5.2
		c3.5,3.5,5.3,8.3,5.3,14.4v3.3c0,1.3-0.6,2-1.7,2h-6.1c-1.2,0-1.7-0.7-1.7-2v-2.4c0-8.1-3.9-12.1-11.8-12.1h-11.3
		c-7.9,0-11.8,4.2-11.8,12.6v5.3c0,4.5,3,7.6,8.9,9.3c2.7,0.7,5.6,1.3,8.8,1.9c3.2,0.6,6.4,1.3,9.6,2.3c3.2,0.9,6.2,2.1,8.8,3.5
		c2.7,1.4,4.8,3.5,6.4,6.2c1.6,2.8,2.5,6.2,2.5,10.2v6c0,6.1-1.8,10.9-5.3,14.4c-3.5,3.5-8.3,5.2-14.3,5.2h-15.3
		c-6,0-10.8-1.7-14.3-5.2C730.6,355.8,728.8,351,728.8,344.8z"/>
</g>
</svg>
