<?xml version="1.0" encoding="utf-8"?>
<!-- Generator: Adobe Illustrator 23.0.1, SVG Export Plug-In . SVG Version: 6.00 Build 0)  -->
<svg version="1.1" id="Layer_1" xmlns="http://www.w3.org/2000/svg" xmlns:xlink="http://www.w3.org/1999/xlink" x="0px" y="0px"
	 viewBox="0 0 315.3 364.5" style="enable-background:new 0 0 315.3 364.5;" xml:space="preserve">
<style type="text/css">
	.st0{fill:#FFFFFF;}
</style>
<path class="st0" d="M314.6,81.4L157,1L-0.2,82.1l0.4,181.8l157.6,100.7L315,263.1L314.6,81.4z M156,32.4L277,94.2l-34.3,17.9
	l-84.9-43.3l-84.6,43.7l-38-17.7L156,32.4z M141,318.2L30,244.1v-119l42,22.8v76l69,51.5V318.2z M145,273v-88.3l-70.4-39.3
	l-1.3-29.1l85.7,47.5l82.9-47.7l-0.5,29.2l-70.5,40.3l0.4,87.4H145z M286,244.1l-111,74.1v-42.8l67-51.5v-76l44-25.3V244.1z"/>
</svg>
